# xmcd
#
# Track frame offsets: 
#        150
#        12443
#        24749
#        37907
#        49423
#        60231
#        71703
#        83448
#        94533
#        107884
#        120582
#        133789
#        145607
#        157870
#        169541
#        182127
#        194289
#        206870
#        218699
#        229488
#
# Disc length: 3224 seconds
#
# Revision: 0
# Processed by: cddbd v1.5.2PL0 Copyright (c) Steve Scherf et al.
# Submitted via: ExactAudioCopy v0.95a5
#
DISCID=100c9614
DTITLE=Hank williams - Your Cheatin' Heart CD2
DYEAR=1900
DGENRE=Country
TTITLE0=Lovesick Blues
TTITLE1=Cold Cold Heart
TTITLE2=Wedding Bells
TTITLE3=My Bucket's Got a Hole in It
TTITLE4=Moanin' the Blues
TTITLE5=Baby We're Really in Love
TTITLE6=Settin' the Woods on Fire
TTITLE7=Crazy Heart
TTITLE8=You're Gonna Change
TTITLE9=I Just Don't Like This Kind of Living
TTITLE10=Mind Your Own Business
TTITLE11=Why Shouldn't We Try Anymore
TTITLE12=Howlin' At the Moon
TTITLE13=Dear John
TTITLE14=There'll Be No Teardrops Tonight
TTITLE15=Never Again
TTITLE16=Honky Tonkin'
TTITLE17=Long Gone Lonesome Blues
TTITLE18=Why Don't You Love Me
TTITLE19=I Won't be Home No More
EXTD=
EXTT0=
EXTT1=
EXTT2=
EXTT3=
EXTT4=
EXTT5=
EXTT6=
EXTT7=
EXTT8=
EXTT9=
EXTT10=
EXTT11=
EXTT12=
EXTT13=
EXTT14=
EXTT15=
EXTT16=
EXTT17=
EXTT18=
EXTT19=
PLAYORDER=
